<svg xmlns="http://www.w3.org/2000/svg" viewBox="0 0 210 275" height="275mm" width="210mm"><path d="M178.06.36a85.928 87.481 0 0113.784 47.519 85.928 87.481 0 01-85.928 87.481A85.928 87.481 0 0119.99 47.88 85.928 87.481 0 0133.439.895a96.084 94.308 0 00-23.55 61.813 96.084 94.308 0 0096.085 94.309 96.084 94.308 0 0096.084-94.309A96.084 94.308 0 00178.06.36z" color="#000"/><path d="M38.404 129.744L12.862 250.376l79.396 23.696v-19.285l-35.697-29.03 1.846-41.544 35.082 6.77-6.155-12.002-27.696-13.232 1.539-20.003zm131.936.205l25.542 120.632-79.395 23.696v-19.285l35.697-29.03-1.847-41.544-35.081 6.77 6.154-12.002 27.696-13.232-1.538-20.003zM92.498 155.6l7.997 22.557 9.023.205 7.998-22.147z" stroke="#000" stroke-width=".445"/><path d="M208.622 78.199a91.672 91.672 0 01.188 5.762 91.672 91.672 0 01-23.155 60.318l-2.098-9.182A91.672 91.672 0 00208.622 78.2zm-207.003.272a91.672 91.672 0 00-.189 5.763 91.672 91.672 0 0023.155 60.318l2.098-9.182A91.672 91.672 0 011.62 78.47z"/><path d="M105.046 118.233A79.09 79.09 0 00166.4 88.915l-61.464-49.772zm0 0a79.09 79.09 0 01-61.437-29.148l61.327-49.942z" opacity=".802" fill="#454343"/></svg>