<svg xmlns="http://www.w3.org/2000/svg" width="210mm" height="225mm" viewBox="0 0 210 225"><path opacity=".511" stroke="#512222" stroke-width=".229" stroke-linecap="round" d="M15.711 28.895h165.508v179.06H15.711z" transform="matrix(1.26706 0 0 1.25592 -19.596 -35.789)"/><g fill="#fff"><path d="M160.253 10.414a64.897 65.49 0 0110.41 35.574 64.897 65.49 0 01-64.897 65.49 64.897 65.49 0 01-64.897-65.49 64.897 65.49 0 0110.158-35.172A72.567 70.6 0 0033.242 57.09a72.567 70.6 0 0072.567 70.6 72.567 70.6 0 0072.568-70.6 72.567 70.6 0 00-18.124-46.676z" color="#000"/><path d="M54.777 107.273l-19.29 90.306 59.963 17.74V200.88l-26.96-21.73 1.395-31.1 26.495 5.067-4.648-8.984-20.918-9.906 1.162-14.975zm99.645.154l19.29 90.306-59.963 17.739v-14.437l26.96-21.732-1.394-31.1-26.496 5.068 4.649-8.985 20.917-9.906-1.162-14.974zm-58.791 19.202l6.04 16.886 6.815.154 6.04-16.58zm87.703-57.943a69.235 68.626 0 01.142 4.314 69.235 68.626 0 01-17.487 45.154l-1.585-6.873a69.235 68.626 0 0018.93-42.595zm-156.339.204a69.235 68.626 0 00-.142 4.314 69.235 68.626 0 0017.487 45.154l1.585-6.873a69.235 68.626 0 01-18.93-42.595z"/><path d="M105.108 98.656a59.732 59.207 0 0046.339-21.948l-46.422-37.26zm0 0a59.732 59.207 0 01-46.4-21.82l46.317-37.387z" opacity=".802"/></g></svg>